# Generated Room Model
o Floor
v -5.0000 0.0000 -5.0000
v 5.0000 0.0000 -5.0000
v 5.0000 0.1000 -5.0000
v -5.0000 0.1000 -5.0000
v -5.0000 0.0000 5.0000
v 5.0000 0.0000 5.0000
v 5.0000 0.1000 5.0000
v -5.0000 0.1000 5.0000
f 1 2 3 4
f 6 5 8 7
f 5 1 4 8
f 2 6 7 3
f 4 3 7 8
f 5 6 2 1
o Wall_North
v -5.0000 0.0000 -5.1000
v 5.0000 0.0000 -5.1000
v 5.0000 3.0000 -5.1000
v -5.0000 3.0000 -5.1000
v -5.0000 0.0000 -4.9000
v 5.0000 0.0000 -4.9000
v 5.0000 3.0000 -4.9000
v -5.0000 3.0000 -4.9000
f 9 10 11 12
f 14 13 16 15
f 13 9 12 16
f 10 14 15 11
f 12 11 15 16
f 13 14 10 9
o Wall_East
v 4.9000 0.0000 -5.0000
v 5.1000 0.0000 -5.0000
v 5.1000 3.0000 -5.0000
v 4.9000 3.0000 -5.0000
v 4.9000 0.0000 5.0000
v 5.1000 0.0000 5.0000
v 5.1000 3.0000 5.0000
v 4.9000 3.0000 5.0000
f 17 18 19 20
f 22 21 24 23
f 21 17 20 24
f 18 22 23 19
f 20 19 23 24
f 21 22 18 17
o King_Size_Bed
v -3.1404 0.0000 -4.0335
v -1.1404 0.0000 -4.0335
v -1.1404 0.6000 -4.0335
v -3.1404 0.6000 -4.0335
v -3.1404 0.0000 -1.8335
v -1.1404 0.0000 -1.8335
v -1.1404 0.6000 -1.8335
v -3.1404 0.6000 -1.8335
f 25 26 27 28
f 30 29 32 31
f 29 25 28 32
f 26 30 31 27
f 28 27 31 32
f 29 30 26 25
o Study_Desk
v 2.1551 0.0000 3.4184
v 3.6551 0.0000 3.4184
v 3.6551 0.8000 3.4184
v 2.1551 0.8000 3.4184
v 2.1551 0.0000 4.2184
v 3.6551 0.0000 4.2184
v 3.6551 0.8000 4.2184
v 2.1551 0.8000 4.2184
f 33 34 35 36
f 38 37 40 39
f 37 33 36 40
f 34 38 39 35
f 36 35 39 40
f 37 38 34 33
o Wardrobe
v -4.4318 0.0000 3.3243
v -3.2318 0.0000 3.3243
v -3.2318 2.5000 3.3243
v -4.4318 2.5000 3.3243
v -4.4318 0.0000 4.1243
v -3.2318 0.0000 4.1243
v -3.2318 2.5000 4.1243
v -4.4318 2.5000 4.1243
f 41 42 43 44
f 46 45 48 47
f 45 41 44 48
f 42 46 47 43
f 44 43 47 48
f 45 46 42 41
